<svg xmlns="http://www.w3.org/2000/svg" id="Calque_1" data-name="Calque 1" viewBox="0 0 280.05 46.11"><defs><style>.cls-1{stroke-width:0}</style></defs><path d="M9.17 16.61c-.55.29-1.78.67-3.34.67-3.5 0-5.78-2.37-5.78-5.93S2.5 5.18 6.29 5.18c1.25 0 2.35.31 2.93.6l-.48 1.63c-.5-.29-1.3-.55-2.45-.55-2.66 0-4.1 1.97-4.1 4.39 0 2.69 1.73 4.34 4.03 4.34 1.2 0 1.99-.31 2.59-.58l.36 1.58ZM22.01 11.14c0 4.3-2.98 6.17-5.78 6.17-3.14 0-5.57-2.3-5.57-5.98 0-3.89 2.54-6.17 5.76-6.17s5.59 2.42 5.59 5.98Zm-9.22.12c0 2.54 1.46 4.46 3.53 4.46s3.53-1.9 3.53-4.51c0-1.97-.98-4.46-3.48-4.46s-3.58 2.3-3.58 4.51ZM24.67 8.57c0-1.2-.02-2.18-.1-3.14h1.87l.12 1.92h.05c.58-1.1 1.92-2.18 3.84-2.18 1.61 0 4.1.96 4.1 4.94v6.94h-2.11v-6.7c0-1.87-.7-3.43-2.69-3.43-1.39 0-2.47.98-2.83 2.16-.1.26-.14.62-.14.98v6.98h-2.11V8.57ZM40.44 2.09v3.34h3.02v1.61h-3.02v6.26c0 1.44.41 2.26 1.58 2.26.55 0 .96-.07 1.22-.14l.1 1.58c-.41.17-1.06.29-1.87.29-.98 0-1.78-.31-2.28-.89-.6-.62-.82-1.66-.82-3.02V7.04h-1.8V5.43h1.8V2.65l2.06-.55ZM52.27 17.04l-.17-1.46h-.07c-.65.91-1.9 1.73-3.55 1.73-2.35 0-3.55-1.66-3.55-3.34 0-2.81 2.5-4.34 6.98-4.32v-.24c0-.96-.26-2.69-2.64-2.69-1.08 0-2.21.34-3.02.86l-.48-1.39c.96-.62 2.35-1.03 3.82-1.03 3.55 0 4.42 2.42 4.42 4.75v4.34c0 1.01.05 1.99.19 2.78h-1.92Zm-.31-5.93c-2.3-.05-4.92.36-4.92 2.62 0 1.37.91 2.02 1.99 2.02 1.51 0 2.47-.96 2.81-1.94.07-.22.12-.46.12-.67v-2.02ZM65.69 16.61c-.55.29-1.78.67-3.34.67-3.5 0-5.78-2.38-5.78-5.93s2.45-6.17 6.24-6.17c1.25 0 2.35.31 2.93.6l-.48 1.63c-.5-.29-1.3-.55-2.45-.55-2.66 0-4.1 1.97-4.1 4.39 0 2.69 1.73 4.34 4.03 4.34 1.2 0 1.99-.31 2.59-.58l.36 1.58ZM71.02 2.09v3.34h3.02v1.61h-3.02v6.26c0 1.44.41 2.26 1.58 2.26.55 0 .96-.07 1.22-.14l.1 1.58c-.41.17-1.06.29-1.87.29-.98 0-1.78-.31-2.28-.89-.6-.62-.82-1.66-.82-3.02V7.04h-1.8V5.43h1.8V2.65l2.06-.55ZM75.84 15.79c0-.89.6-1.51 1.44-1.51s1.42.62 1.42 1.51-.55 1.51-1.44 1.51c-.84 0-1.42-.65-1.42-1.51ZM81.31 8.57c0-1.2-.02-2.18-.1-3.14h1.87l.12 1.92h.05c.58-1.1 1.92-2.18 3.84-2.18 1.61 0 4.1.96 4.1 4.94v6.94h-2.11v-6.7c0-1.87-.7-3.43-2.69-3.43-1.39 0-2.47.98-2.83 2.16-.1.26-.14.62-.14.98v6.98h-2.11V8.57ZM96.98 2.16c.02.72-.5 1.3-1.34 1.3-.74 0-1.27-.58-1.27-1.3S94.92.84 95.69.84s1.3.58 1.3 1.32Zm-2.35 14.88V5.42h2.11v11.62h-2.11ZM108.53 16.61c-.55.29-1.78.67-3.34.67-3.5 0-5.78-2.38-5.78-5.93s2.45-6.17 6.24-6.17c1.25 0 2.35.31 2.93.6l-.48 1.63c-.5-.29-1.3-.55-2.45-.55-2.66 0-4.1 1.97-4.1 4.39 0 2.69 1.73 4.34 4.03 4.34 1.2 0 1.99-.31 2.59-.58l.36 1.58ZM121.37 11.14c0 4.3-2.98 6.17-5.78 6.17-3.14 0-5.57-2.3-5.57-5.98 0-3.89 2.54-6.17 5.76-6.17s5.59 2.42 5.59 5.98Zm-9.22.12c0 2.54 1.46 4.46 3.53 4.46s3.53-1.9 3.53-4.51c0-1.97-.98-4.46-3.48-4.46s-3.58 2.3-3.58 4.51ZM134.06 0v14.04c0 1.03.02 2.21.1 3h-1.9l-.1-2.02h-.05c-.65 1.3-2.06 2.28-3.96 2.28-2.81 0-4.97-2.38-4.97-5.9-.02-3.86 2.38-6.24 5.21-6.24 1.78 0 2.98.84 3.5 1.78h.05V0h2.11Zm-2.11 10.15c0-.26-.02-.62-.1-.89-.31-1.34-1.46-2.45-3.05-2.45-2.18 0-3.48 1.92-3.48 4.49 0 2.35 1.15 4.3 3.43 4.3 1.42 0 2.71-.94 3.1-2.52.07-.29.1-.58.1-.91v-2.02ZM138.74 11.62c.05 2.86 1.87 4.03 3.98 4.03 1.51 0 2.42-.26 3.22-.6l.36 1.51c-.74.34-2.02.72-3.86.72-3.58 0-5.71-2.35-5.71-5.86s2.06-6.26 5.45-6.26c3.79 0 4.8 3.34 4.8 5.47 0 .43-.05.77-.07.98h-8.16Zm6.19-1.52c.02-1.34-.55-3.43-2.93-3.43-2.14 0-3.07 1.97-3.24 3.43h6.17ZM150.41 5.42l2.28 6.53c.38 1.06.7 2.02.94 2.98h.07c.26-.96.6-1.92.98-2.98l2.26-6.53h2.21l-4.56 11.62h-2.02l-4.42-11.62h2.26ZM171.96 18.58c-1.32.7-2.66.96-4.27.96-3.94 0-7.27-2.88-7.27-7.49 0-4.94 3.43-9.22 8.76-9.22 4.18 0 6.98 2.93 6.98 6.94 0 3.6-2.02 5.71-4.27 5.71-.96 0-1.85-.65-1.78-2.11h-.1c-.84 1.42-1.94 2.11-3.38 2.11s-2.59-1.13-2.59-3.02c0-2.98 2.35-5.69 5.69-5.69 1.03 0 1.94.22 2.57.5l-.82 4.34c-.36 1.82-.07 2.66.72 2.69 1.22.02 2.59-1.61 2.59-4.39 0-3.48-2.09-5.98-5.81-5.98-3.91 0-7.2 3.1-7.2 7.97 0 4.01 2.62 6.48 6.17 6.48 1.37 0 2.64-.29 3.62-.84l.38 1.03Zm-1.32-10.37c-.24-.07-.65-.17-1.2-.17-2.11 0-3.82 1.99-3.82 4.32 0 1.06.53 1.82 1.58 1.82 1.39 0 2.66-1.78 2.93-3.26l.5-2.71ZM188.83 5.42c-.05.84-.1 1.78-.1 3.19v6.74c0 2.66-.53 4.3-1.66 5.3-1.13 1.06-2.76 1.39-4.22 1.39s-2.93-.34-3.86-.96l.53-1.61c.77.48 1.97.91 3.41.91 2.16 0 3.74-1.13 3.74-4.06v-1.3h-.05c-.65 1.08-1.9 1.94-3.7 1.94-2.88 0-4.94-2.45-4.94-5.66 0-3.94 2.57-6.17 5.23-6.17 2.02 0 3.12 1.06 3.62 2.02h.05l.1-1.75h1.85Zm-2.18 4.59c0-.36-.02-.67-.12-.96-.38-1.22-1.42-2.23-2.95-2.23-2.02 0-3.46 1.7-3.46 4.39 0 2.28 1.15 4.18 3.43 4.18 1.3 0 2.47-.82 2.93-2.16.12-.36.17-.77.17-1.13v-2.09ZM192.09 8.57c0-1.2-.02-2.18-.1-3.14h1.85l.1 1.87h.07c.65-1.1 1.73-2.14 3.65-2.14 1.58 0 2.78.96 3.29 2.33h.05c.36-.65.82-1.15 1.3-1.51.7-.53 1.46-.82 2.57-.82 1.54 0 3.82 1.01 3.82 5.04v6.84h-2.06v-6.58c0-2.23-.82-3.58-2.52-3.58-1.2 0-2.14.89-2.5 1.92-.1.29-.17.67-.17 1.06v7.18h-2.06v-6.96c0-1.85-.82-3.19-2.42-3.19-1.32 0-2.28 1.06-2.62 2.11-.12.31-.17.67-.17 1.03v7.01h-2.06V8.57ZM218.54 17.04l-.17-1.46h-.07c-.65.91-1.9 1.73-3.55 1.73-2.35 0-3.55-1.66-3.55-3.34 0-2.81 2.5-4.34 6.98-4.32v-.24c0-.96-.26-2.69-2.64-2.69-1.08 0-2.21.34-3.02.86l-.48-1.39c.96-.62 2.35-1.03 3.82-1.03 3.55 0 4.42 2.42 4.42 4.75v4.34c0 1.01.05 1.99.19 2.78h-1.92Zm-.31-5.93c-2.3-.05-4.92.36-4.92 2.62 0 1.37.91 2.02 1.99 2.02 1.51 0 2.47-.96 2.81-1.94.07-.22.12-.46.12-.67v-2.02ZM226.03 2.16c.02.72-.5 1.3-1.34 1.3-.74 0-1.27-.58-1.27-1.3s.55-1.32 1.32-1.32 1.3.58 1.3 1.32Zm-2.35 14.88V5.42h2.11v11.62h-2.11ZM229.29 0h2.11v17.04h-2.11V0ZM234.21 15.79c0-.89.6-1.51 1.44-1.51s1.42.62 1.42 1.51-.55 1.51-1.44 1.51c-.84 0-1.42-.65-1.42-1.51ZM247.96 16.61c-.55.29-1.78.67-3.34.67-3.5 0-5.78-2.38-5.78-5.93s2.45-6.17 6.24-6.17c1.25 0 2.35.31 2.93.6l-.48 1.63c-.5-.29-1.3-.55-2.45-.55-2.66 0-4.1 1.97-4.1 4.39 0 2.69 1.73 4.34 4.03 4.34 1.2 0 1.99-.31 2.59-.58l.36 1.58ZM260.81 11.14c0 4.3-2.98 6.17-5.78 6.17-3.14 0-5.57-2.3-5.57-5.98 0-3.89 2.54-6.17 5.76-6.17s5.59 2.42 5.59 5.98Zm-9.22.12c0 2.54 1.46 4.46 3.53 4.46s3.53-1.9 3.53-4.51c0-1.97-.98-4.46-3.48-4.46s-3.58 2.3-3.58 4.51ZM263.47 8.57c0-1.2-.02-2.18-.1-3.14h1.85l.1 1.87h.07c.65-1.1 1.73-2.14 3.65-2.14 1.58 0 2.78.96 3.29 2.33h.05c.36-.65.82-1.15 1.3-1.51.7-.53 1.46-.82 2.57-.82 1.54 0 3.82 1.01 3.82 5.04v6.84h-2.06v-6.58c0-2.23-.82-3.58-2.52-3.58-1.2 0-2.14.89-2.5 1.92-.1.29-.17.67-.17 1.06v7.18h-2.06v-6.96c0-1.85-.82-3.19-2.42-3.19-1.32 0-2.28 1.06-2.62 2.11-.12.31-.17.67-.17 1.03v7.01h-2.06V8.57ZM10.58 37.87c0 5.3-1.97 8.23-5.42 8.23-3.05 0-5.11-2.86-5.16-8.02 0-5.23 2.26-8.11 5.42-8.11s5.16 2.93 5.16 7.9Zm-8.47.24c0 4.06 1.25 6.36 3.17 6.36 2.16 0 3.19-2.52 3.19-6.5s-.98-6.36-3.17-6.36c-1.85 0-3.19 2.26-3.19 6.5ZM21.43 31.73c-.43-.02-.98 0-1.58.1-3.31.55-5.06 2.98-5.42 5.54h.07c.74-.98 2.04-1.8 3.77-1.8 2.76 0 4.7 1.99 4.7 5.04 0 2.86-1.94 5.5-5.18 5.5s-5.52-2.59-5.52-6.65c0-3.07 1.1-5.5 2.64-7.03 1.3-1.27 3.02-2.06 4.99-2.3.62-.1 1.15-.12 1.54-.12v1.73Zm-.6 9c0-2.23-1.27-3.58-3.22-3.58-1.27 0-2.45.79-3.02 1.92-.14.24-.24.55-.24.94.05 2.57 1.22 4.46 3.43 4.46 1.82 0 3.05-1.51 3.05-3.74ZM29.93 45.84v-1.3l1.66-1.61c3.98-3.79 5.78-5.81 5.81-8.16 0-1.58-.77-3.05-3.1-3.05-1.42 0-2.59.72-3.31 1.32l-.67-1.49c1.08-.91 2.62-1.58 4.42-1.58 3.36 0 4.78 2.3 4.78 4.54 0 2.88-2.09 5.21-5.38 8.38l-1.25 1.15v.05h7.01v1.75h-9.96ZM43.46 44.35c.46.05.98 0 1.7-.07 1.22-.17 2.38-.67 3.26-1.51 1.03-.94 1.78-2.3 2.06-4.15h-.07c-.86 1.06-2.11 1.68-3.67 1.68-2.81 0-4.61-2.11-4.61-4.78 0-2.95 2.14-5.54 5.33-5.54s5.16 2.59 5.16 6.58c0 3.43-1.15 5.83-2.69 7.32-1.2 1.18-2.86 1.9-4.54 2.09-.77.12-1.44.14-1.94.12v-1.73Zm.77-8.97c0 1.94 1.18 3.31 3 3.31 1.42 0 2.52-.7 3.07-1.63.12-.19.19-.43.19-.77 0-2.66-.98-4.7-3.19-4.7-1.8 0-3.07 1.58-3.07 3.79ZM60.14 43.42c.6.38 1.99.98 3.46.98 2.71 0 3.55-1.73 3.53-3.02-.02-2.18-1.99-3.12-4.03-3.12h-1.18v-1.58h1.18c1.54 0 3.48-.79 3.48-2.64 0-1.25-.79-2.35-2.74-2.35-1.25 0-2.45.55-3.12 1.03l-.55-1.54c.82-.6 2.4-1.2 4.08-1.2 3.07 0 4.46 1.82 4.46 3.72 0 1.61-.96 2.98-2.88 3.67v.05c1.92.38 3.48 1.82 3.48 4.01 0 2.5-1.94 4.68-5.69 4.68-1.75 0-3.29-.55-4.06-1.06l.58-1.63ZM78.48 45.84v-4.25h-7.25V40.2l6.96-9.96h2.28v9.7h2.18v1.66h-2.18v4.25h-1.99Zm0-5.9v-5.21c0-.82.02-1.63.07-2.45h-.07c-.48.91-.86 1.58-1.3 2.3l-3.82 5.3v.05h5.11ZM93.93 32.21h-.05l-2.71 1.46-.41-1.61 3.41-1.82h1.8v15.6h-2.04V32.21ZM102.16 43.42c.6.38 1.99.98 3.46.98 2.71 0 3.55-1.73 3.53-3.02-.02-2.18-1.99-3.12-4.03-3.12h-1.18v-1.58h1.18c1.54 0 3.48-.79 3.48-2.64 0-1.25-.79-2.35-2.74-2.35-1.25 0-2.45.55-3.12 1.03l-.55-1.54c.82-.6 2.4-1.2 4.08-1.2 3.07 0 4.46 1.82 4.46 3.72 0 1.61-.96 2.98-2.88 3.67v.05c1.92.38 3.48 1.82 3.48 4.01 0 2.5-1.94 4.68-5.69 4.68-1.75 0-3.29-.55-4.06-1.06l.58-1.63ZM127.96 31.73c-.43-.02-.98 0-1.58.1-3.31.55-5.06 2.98-5.42 5.54h.07c.74-.98 2.04-1.8 3.77-1.8 2.76 0 4.7 1.99 4.7 5.04 0 2.86-1.94 5.5-5.18 5.5s-5.52-2.59-5.52-6.65c0-3.07 1.1-5.5 2.64-7.03 1.3-1.27 3.02-2.06 4.99-2.3.62-.1 1.15-.12 1.54-.12v1.73Zm-.6 9c0-2.23-1.27-3.58-3.22-3.58-1.27 0-2.45.79-3.02 1.92-.14.24-.24.55-.24.94.05 2.57 1.22 4.46 3.43 4.46 1.82 0 3.05-1.51 3.05-3.74ZM141.5 30.24v1.39l-6.79 14.21h-2.18l6.77-13.8v-.05h-7.63v-1.75h9.84Z" class="cls-1"/></svg>